<svg width="29" height="29" viewBox="0 0 29 29" fill="none" xmlns="http://www.w3.org/2000/svg">
<path d="M14.5005 21.1458C15.1651 21.1458 15.7088 20.602 15.7088 19.9375V15.7083H19.938C20.6026 15.7083 21.1463 15.1645 21.1463 14.5C21.1463 13.8354 20.6026 13.2916 19.938 13.2916H15.7088V9.06245C15.7088 8.39787 15.1651 7.85412 14.5005 7.85412C13.8359 7.85412 13.2921 8.39787 13.2921 9.06245V13.2916H9.06297C8.39839 13.2916 7.85464 13.8354 7.85464 14.5C7.85464 15.1645 8.39839 15.7083 9.06297 15.7083H13.2921V19.9375C13.2921 20.602 13.8359 21.1458 14.5005 21.1458Z" fill="#323232"/>
<path d="M25.6957 11.612L25.599 11.5637C25.2063 11.3643 24.8921 11.0441 24.6867 10.6514L24.6384 10.5547C24.4451 10.1741 23.8953 10.1741 23.7019 10.5547L23.6536 10.6514C23.4542 11.0441 23.134 11.3583 22.7413 11.5637L22.6446 11.612C22.264 11.8054 22.264 12.3552 22.6446 12.5485L22.7413 12.5968C23.134 12.7962 23.4482 13.1164 23.6536 13.5091L23.7019 13.6058C23.8953 13.9864 24.4451 13.9864 24.6384 13.6058L24.6867 13.5091C24.8861 13.1164 25.2063 12.8022 25.599 12.5968L25.6957 12.5485C26.0763 12.3552 26.0763 11.8054 25.6957 11.612Z" fill="#323232"/>
<path d="M17.0682 9.03224L17.2615 9.12891C17.8657 9.43704 18.349 9.92037 18.6571 10.5245L18.7538 10.7179C19.0861 11.3704 19.7507 11.7752 20.4878 11.7752C21.2248 11.7752 21.8834 11.3704 22.2217 10.7179L22.3184 10.5245C22.6265 9.92037 23.1098 9.43704 23.714 9.12891L23.9073 9.03224C24.5598 8.69995 24.9646 8.03537 24.9646 7.29829C24.9646 6.5612 24.5598 5.90266 23.9073 5.56433L23.714 5.46766C23.1098 5.15954 22.6265 4.6762 22.3184 4.07204L22.2217 3.8787C21.8894 3.2262 21.2248 2.82141 20.4938 2.82141C19.7628 2.82141 19.0982 3.2262 18.7598 3.8787L18.6632 4.07204C18.3551 4.6762 17.8717 5.15954 17.2676 5.46766L17.0742 5.56433C16.4217 5.89662 16.0169 6.5612 16.0169 7.29224C16.0169 8.02329 16.4217 8.68787 17.0742 9.0262L17.0682 9.03224ZM17.8898 7.18349L18.0832 7.08683C19.0317 6.60349 19.7869 5.84829 20.2703 4.89974L20.3669 4.70641C20.3669 4.70641 20.4032 4.63391 20.4817 4.63391C20.5603 4.63391 20.5905 4.68224 20.5965 4.70641L20.6932 4.89974C21.1765 5.84829 21.9317 6.60349 22.8803 7.08683L23.0736 7.18349C23.0736 7.18349 23.1461 7.21974 23.1461 7.29829C23.1461 7.37683 23.0917 7.40704 23.0736 7.41308L22.8803 7.50974C21.9317 7.99308 21.1765 8.74829 20.6932 9.69683L20.5965 9.89016C20.5965 9.89016 20.5603 9.96266 20.4817 9.96266C20.4032 9.96266 20.373 9.90829 20.3669 9.89016L20.2703 9.69683C19.7869 8.74829 19.0317 7.99308 18.0832 7.50974L17.8898 7.41308C17.8898 7.41308 17.8173 7.37683 17.8173 7.29829C17.8173 7.21974 17.8717 7.18954 17.8898 7.18349Z" fill="#323232"/>
<path d="M24.2034 14.8081C23.708 14.7477 23.2548 15.0981 23.1944 15.5935C22.6507 19.9616 18.9109 23.2604 14.5005 23.2604C9.66714 23.2604 5.74005 19.3333 5.74005 14.5C5.74005 9.66662 9.66714 5.73954 14.5005 5.73954C14.6817 5.73954 14.869 5.73954 15.0503 5.75766C15.5578 5.78787 15.9807 5.40724 16.0109 4.91183C16.0411 4.41037 15.6605 3.98141 15.1651 3.9512C14.9476 3.93912 14.724 3.93308 14.5065 3.93308C8.6763 3.93308 3.93359 8.67579 3.93359 14.506C3.93359 20.3362 8.6763 25.0789 14.5065 25.0789C19.8292 25.0789 24.3423 21.1035 24.9948 15.8291C25.0553 15.3337 24.7048 14.8806 24.2094 14.8202L24.2034 14.8081Z" fill="#323232"/>
</svg>
