<svg width="22" height="22" viewBox="0 0 22 22" fill="none" xmlns="http://www.w3.org/2000/svg">
<g clip-path="url(#clip0_296_1752)">
<path d="M6.41699 12.8333C7.93866 12.8333 9.16699 11.605 9.16699 10.0833C9.16699 8.56165 7.93866 7.33331 6.41699 7.33331C4.89533 7.33331 3.66699 8.56165 3.66699 10.0833C3.66699 11.605 4.89533 12.8333 6.41699 12.8333ZM6.41699 9.16665C6.92116 9.16665 7.33366 9.57915 7.33366 10.0833C7.33366 10.5875 6.92116 11 6.41699 11C5.91283 11 5.50033 10.5875 5.50033 10.0833C5.50033 9.57915 5.91283 9.16665 6.41699 9.16665ZM17.417 6.41665H10.0837V13.75H2.75033V4.58331H0.916992V18.3333H2.75033V15.5833H19.2503V18.3333H21.0837V10.0833C21.0837 8.05748 19.4428 6.41665 17.417 6.41665ZM19.2503 13.75H11.917V8.24998H17.417C18.4253 8.24998 19.2503 9.07498 19.2503 10.0833V13.75Z" fill="black"/>
</g>
<defs>
<clipPath id="clip0_296_1752">
<rect width="22" height="22" fill="white"/>
</clipPath>
</defs>
</svg>
