<svg width="36" height="35" viewBox="0 0 36 35" fill="none" xmlns="http://www.w3.org/2000/svg">
<path d="M18 0.900391C27.4364 0.900391 35.0996 8.33398 35.0996 17.5C35.0996 26.666 27.4364 34.0996 18 34.0996C8.56361 34.0996 0.900391 26.666 0.900391 17.5C0.900391 8.33398 8.56361 0.900391 18 0.900391ZM18 25.0254C16.415 25.0254 14.5138 25.386 12.918 25.9316C12.1203 26.2044 11.4013 26.5221 10.8389 26.8623C10.3131 27.1803 9.93605 27.5119 9.74902 27.834C12.0328 29.5712 14.8916 30.5996 18 30.5996C21.1084 30.5996 23.9672 29.5712 26.251 27.834C26.0677 27.5122 25.6933 27.1805 25.168 26.8623C24.6064 26.5222 23.8876 26.2044 23.0889 25.9316C21.4908 25.3859 19.5851 25.0254 18 25.0254ZM18 4.40039C10.5554 4.40039 4.5 10.2815 4.5 17.5C4.5 20.4364 5.51686 23.134 7.19434 25.3125C8.43893 23.9062 10.4977 22.9659 12.5469 22.375C14.6443 21.7703 16.7492 21.5254 18 21.5254C19.2508 21.5254 21.3557 21.7703 23.4531 22.375C25.5021 22.9658 27.5601 23.9065 28.8047 25.3125C30.4824 23.134 31.5 20.4367 31.5 17.5C31.5 10.2815 25.4446 4.40039 18 4.40039ZM18 7.5C21.3504 7.5 24.0498 10.116 24.0498 13.375C24.0498 16.634 21.3504 19.25 18 19.25C14.6496 19.25 11.9502 16.634 11.9502 13.375C11.9502 10.116 14.6496 7.5 18 7.5ZM18 11C16.6414 11 15.5498 12.0635 15.5498 13.375C15.5498 14.6865 16.6414 15.75 18 15.75C19.3586 15.75 20.4502 14.6865 20.4502 13.375C20.4502 12.0635 19.3586 11 18 11Z" fill="#3F3F3F" stroke="#3F3F3F" stroke-width="0.2"/>
</svg>
