<svg width="28" height="28" viewBox="0 0 28 28" fill="none" xmlns="http://www.w3.org/2000/svg">
<g clip-path="url(#clip0_296_1501)">
<path d="M22.75 4.08337L21 2.33337L19.25 4.08337L17.5 2.33337L15.75 4.08337L14 2.33337L12.25 4.08337L10.5 2.33337L8.75 4.08337L7 2.33337V18.6667H3.5V22.1667C3.5 24.1034 5.06333 25.6667 7 25.6667H21C22.9367 25.6667 24.5 24.1034 24.5 22.1667V2.33337L22.75 4.08337ZM17.5 23.3334H7C6.35833 23.3334 5.83333 22.8084 5.83333 22.1667V21H17.5V23.3334ZM22.1667 22.1667C22.1667 22.8084 21.6417 23.3334 21 23.3334C20.3583 23.3334 19.8333 22.8084 19.8333 22.1667V18.6667H9.33333V5.83337H22.1667V22.1667Z" fill="#323232"/>
<path d="M17.5 8.16675H10.5V10.5001H17.5V8.16675Z" fill="#323232"/>
<path d="M21.0003 8.16675H18.667V10.5001H21.0003V8.16675Z" fill="#323232"/>
<path d="M17.5 11.6667H10.5V14.0001H17.5V11.6667Z" fill="#323232"/>
<path d="M21.0003 11.6667H18.667V14.0001H21.0003V11.6667Z" fill="#323232"/>
</g>
<defs>
<clipPath id="clip0_296_1501">
<rect width="28" height="28" fill="white"/>
</clipPath>
</defs>
</svg>
