<svg width="26" height="26" viewBox="0 0 26 26" fill="none" xmlns="http://www.w3.org/2000/svg">
<g clip-path="url(#clip0_296_2022)">
<path d="M12.9997 2.16663C8.66634 2.16663 4.33301 2.70829 4.33301 6.49996V16.7916C4.33301 18.8825 6.03384 20.5833 8.12467 20.5833L6.49967 22.2083V22.75H19.4997V22.2083L17.8747 20.5833C19.9655 20.5833 21.6663 18.8825 21.6663 16.7916V6.49996C21.6663 2.70829 17.788 2.16663 12.9997 2.16663ZM19.1313 5.41663H6.96551C7.62634 4.85329 9.19717 4.33329 12.9997 4.33329C17.0188 4.33329 18.5463 4.83163 19.1313 5.41663ZM11.9163 7.58329V10.8333H6.49967V7.58329H11.9163ZM14.083 7.58329H19.4997V10.8333H14.083V7.58329ZM17.8747 18.4166H8.12467C7.22551 18.4166 6.49967 17.6908 6.49967 16.7916V13H19.4997V16.7916C19.4997 17.6908 18.7738 18.4166 17.8747 18.4166Z" fill="#323232"/>
<path d="M9.20801 17.3334C10.1055 17.3334 10.833 16.6058 10.833 15.7084C10.833 14.8109 10.1055 14.0834 9.20801 14.0834C8.31055 14.0834 7.58301 14.8109 7.58301 15.7084C7.58301 16.6058 8.31055 17.3334 9.20801 17.3334Z" fill="#323232"/>
<path d="M16.792 17.3334C17.6895 17.3334 18.417 16.6058 18.417 15.7084C18.417 14.8109 17.6895 14.0834 16.792 14.0834C15.8945 14.0834 15.167 14.8109 15.167 15.7084C15.167 16.6058 15.8945 17.3334 16.792 17.3334Z" fill="#323232"/>
</g>
<defs>
<clipPath id="clip0_296_2022">
<rect width="26" height="26" fill="white"/>
</clipPath>
</defs>
</svg>
